<mxfile host="app.diagrams.net" modified="2021-01-10T03:30:42.360Z" agent="5.0 (Macintosh; Intel Mac OS X 10_13_6) AppleWebKit/537.36 (KHTML, like Gecko) Chrome/87.0.4280.88 Safari/537.36" etag="pbChWD0FTQ1WbI2T348X" version="14.1.9" type="github">
  <diagram id="C5RBs43oDa-KdzZeNtuy" name="Page-1">
    <mxGraphModel dx="946" dy="557" grid="1" gridSize="10" guides="1" tooltips="1" connect="1" arrows="1" fold="1" page="1" pageScale="1" pageWidth="827" pageHeight="1169" math="0" shadow="0">
      <root>
        <mxCell id="WIyWlLk6GJQsqaUBKTNV-0" />
        <mxCell id="WIyWlLk6GJQsqaUBKTNV-1" parent="WIyWlLk6GJQsqaUBKTNV-0" />
        <mxCell id="pSG__I3RsVNRjLr9DLlW-2" value="" style="edgeStyle=orthogonalEdgeStyle;rounded=0;orthogonalLoop=1;jettySize=auto;html=1;" edge="1" parent="WIyWlLk6GJQsqaUBKTNV-1" source="WIyWlLk6GJQsqaUBKTNV-3">
          <mxGeometry relative="1" as="geometry">
            <mxPoint x="220" y="90" as="targetPoint" />
          </mxGeometry>
        </mxCell>
        <mxCell id="WIyWlLk6GJQsqaUBKTNV-3" value="Begin" style="rounded=1;whiteSpace=wrap;html=1;fontSize=12;glass=0;strokeWidth=1;shadow=0;" parent="WIyWlLk6GJQsqaUBKTNV-1" vertex="1">
          <mxGeometry x="160" y="10" width="120" height="40" as="geometry" />
        </mxCell>
        <mxCell id="pSG__I3RsVNRjLr9DLlW-6" value="" style="edgeStyle=orthogonalEdgeStyle;rounded=0;orthogonalLoop=1;jettySize=auto;html=1;exitX=0;exitY=0.5;exitDx=0;exitDy=0;entryX=0;entryY=0.5;entryDx=0;entryDy=0;" edge="1" parent="WIyWlLk6GJQsqaUBKTNV-1" source="pSG__I3RsVNRjLr9DLlW-4" target="pSG__I3RsVNRjLr9DLlW-14">
          <mxGeometry relative="1" as="geometry">
            <mxPoint x="330" y="200" as="targetPoint" />
          </mxGeometry>
        </mxCell>
        <mxCell id="pSG__I3RsVNRjLr9DLlW-7" value="Yes" style="edgeLabel;html=1;align=center;verticalAlign=middle;resizable=0;points=[];" vertex="1" connectable="0" parent="pSG__I3RsVNRjLr9DLlW-6">
          <mxGeometry x="-0.25" relative="1" as="geometry">
            <mxPoint x="5" y="-10" as="offset" />
          </mxGeometry>
        </mxCell>
        <mxCell id="pSG__I3RsVNRjLr9DLlW-17" value="No" style="edgeStyle=orthogonalEdgeStyle;rounded=0;orthogonalLoop=1;jettySize=auto;html=1;entryX=0.5;entryY=0;entryDx=0;entryDy=0;" edge="1" parent="WIyWlLk6GJQsqaUBKTNV-1" source="pSG__I3RsVNRjLr9DLlW-4" target="pSG__I3RsVNRjLr9DLlW-9">
          <mxGeometry relative="1" as="geometry" />
        </mxCell>
        <mxCell id="pSG__I3RsVNRjLr9DLlW-4" value="Is version of Code and Database same?" style="rhombus;whiteSpace=wrap;html=1;shadow=0;fontFamily=Helvetica;fontSize=12;align=center;strokeWidth=1;spacing=6;spacingTop=-4;" vertex="1" parent="WIyWlLk6GJQsqaUBKTNV-1">
          <mxGeometry x="150" y="150" width="140" height="100" as="geometry" />
        </mxCell>
        <mxCell id="pSG__I3RsVNRjLr9DLlW-15" value="" style="edgeStyle=orthogonalEdgeStyle;rounded=0;orthogonalLoop=1;jettySize=auto;html=1;" edge="1" parent="WIyWlLk6GJQsqaUBKTNV-1" source="pSG__I3RsVNRjLr9DLlW-8" target="pSG__I3RsVNRjLr9DLlW-4">
          <mxGeometry relative="1" as="geometry" />
        </mxCell>
        <mxCell id="pSG__I3RsVNRjLr9DLlW-8" value="&lt;span&gt;Refresh Permission and Api Data&lt;/span&gt;" style="rounded=0;whiteSpace=wrap;html=1;" vertex="1" parent="WIyWlLk6GJQsqaUBKTNV-1">
          <mxGeometry x="160" y="89" width="120" height="40" as="geometry" />
        </mxCell>
        <mxCell id="pSG__I3RsVNRjLr9DLlW-19" value="" style="edgeStyle=orthogonalEdgeStyle;rounded=0;orthogonalLoop=1;jettySize=auto;html=1;entryX=0;entryY=0.5;entryDx=0;entryDy=0;" edge="1" parent="WIyWlLk6GJQsqaUBKTNV-1" source="pSG__I3RsVNRjLr9DLlW-9" target="pSG__I3RsVNRjLr9DLlW-10">
          <mxGeometry relative="1" as="geometry">
            <Array as="points">
              <mxPoint x="320" y="300" />
            </Array>
          </mxGeometry>
        </mxCell>
        <mxCell id="pSG__I3RsVNRjLr9DLlW-9" value="Get all tenants." style="rounded=0;whiteSpace=wrap;html=1;" vertex="1" parent="WIyWlLk6GJQsqaUBKTNV-1">
          <mxGeometry x="160" y="280" width="120" height="40" as="geometry" />
        </mxCell>
        <mxCell id="pSG__I3RsVNRjLr9DLlW-24" value="" style="edgeStyle=orthogonalEdgeStyle;rounded=0;orthogonalLoop=1;jettySize=auto;html=1;" edge="1" parent="WIyWlLk6GJQsqaUBKTNV-1" source="pSG__I3RsVNRjLr9DLlW-10" target="pSG__I3RsVNRjLr9DLlW-11">
          <mxGeometry relative="1" as="geometry" />
        </mxCell>
        <mxCell id="pSG__I3RsVNRjLr9DLlW-10" value="Save all roles" style="rounded=0;whiteSpace=wrap;html=1;" vertex="1" parent="WIyWlLk6GJQsqaUBKTNV-1">
          <mxGeometry x="320" y="280" width="120" height="40" as="geometry" />
        </mxCell>
        <mxCell id="pSG__I3RsVNRjLr9DLlW-26" value="" style="edgeStyle=orthogonalEdgeStyle;rounded=0;orthogonalLoop=1;jettySize=auto;html=1;" edge="1" parent="WIyWlLk6GJQsqaUBKTNV-1" source="pSG__I3RsVNRjLr9DLlW-11" target="pSG__I3RsVNRjLr9DLlW-12">
          <mxGeometry relative="1" as="geometry" />
        </mxCell>
        <mxCell id="pSG__I3RsVNRjLr9DLlW-11" value="Get all roles and there id from DB" style="rounded=0;whiteSpace=wrap;html=1;" vertex="1" parent="WIyWlLk6GJQsqaUBKTNV-1">
          <mxGeometry x="490" y="280" width="120" height="40" as="geometry" />
        </mxCell>
        <mxCell id="pSG__I3RsVNRjLr9DLlW-27" value="" style="edgeStyle=orthogonalEdgeStyle;rounded=0;orthogonalLoop=1;jettySize=auto;html=1;" edge="1" parent="WIyWlLk6GJQsqaUBKTNV-1" source="pSG__I3RsVNRjLr9DLlW-12" target="pSG__I3RsVNRjLr9DLlW-13">
          <mxGeometry relative="1" as="geometry" />
        </mxCell>
        <mxCell id="pSG__I3RsVNRjLr9DLlW-12" value="Build rolePermission data with role_id, permissionId,tenantId" style="rounded=0;whiteSpace=wrap;html=1;" vertex="1" parent="WIyWlLk6GJQsqaUBKTNV-1">
          <mxGeometry x="490" y="360" width="120" height="40" as="geometry" />
        </mxCell>
        <mxCell id="pSG__I3RsVNRjLr9DLlW-28" value="" style="edgeStyle=orthogonalEdgeStyle;rounded=0;orthogonalLoop=1;jettySize=auto;html=1;" edge="1" parent="WIyWlLk6GJQsqaUBKTNV-1" source="pSG__I3RsVNRjLr9DLlW-13" target="pSG__I3RsVNRjLr9DLlW-14">
          <mxGeometry relative="1" as="geometry" />
        </mxCell>
        <mxCell id="pSG__I3RsVNRjLr9DLlW-13" value="Save rolePermission into DB" style="rounded=0;whiteSpace=wrap;html=1;" vertex="1" parent="WIyWlLk6GJQsqaUBKTNV-1">
          <mxGeometry x="320" y="360" width="120" height="40" as="geometry" />
        </mxCell>
        <mxCell id="pSG__I3RsVNRjLr9DLlW-14" value="End" style="rounded=1;whiteSpace=wrap;html=1;fontSize=12;glass=0;strokeWidth=1;shadow=0;" vertex="1" parent="WIyWlLk6GJQsqaUBKTNV-1">
          <mxGeometry x="160" y="360" width="120" height="40" as="geometry" />
        </mxCell>
        <mxCell id="pSG__I3RsVNRjLr9DLlW-29" value="role_version_id:int" style="shape=note;whiteSpace=wrap;html=1;backgroundOutline=1;darkOpacity=0.05;" vertex="1" parent="WIyWlLk6GJQsqaUBKTNV-1">
          <mxGeometry x="460" y="40" width="140" height="100" as="geometry" />
        </mxCell>
      </root>
    </mxGraphModel>
  </diagram>
</mxfile>
